<svg xmlns="http://www.w3.org/2000/svg" version="1.1" xmlns:xlink="http://www.w3.org/1999/xlink" xmlns:svgjs="http://svgjs.dev/svgjs" width="1000" height="623" viewBox="0 0 1000 623"><g transform="matrix(1,0,0,1,-0.6060606060606233,0.2522267206477409)"><svg viewBox="0 0 396 247" data-background-color="#f4eded" preserveAspectRatio="xMidYMid meet" height="623" width="1000" xmlns="http://www.w3.org/2000/svg" xmlns:xlink="http://www.w3.org/1999/xlink"><g id="tight-bounds" transform="matrix(1,0,0,1,0.2400000000000091,-0.09999999999999432)"><svg viewBox="0 0 395.52 247.2" height="247.2" width="395.52"><g><svg></svg></g><g><svg viewBox="0 0 395.52 247.2" height="247.2" width="395.52"><g transform="matrix(1,0,0,1,75.54432000000001,48.44721290322582)"><svg viewBox="0 0 244.43135999999996 150.30557419354835" height="150.30557419354835" width="244.43135999999996"><g><svg viewBox="0 0 244.43135999999996 150.30557419354835" height="150.30557419354835" width="244.43135999999996"><g><svg viewBox="0 0 244.43136 150.30557419354838" height="150.30557419354835" width="244.43135999999996"><g><svg viewBox="0 0 244.43136 150.30557419354838" height="150.30557419354838" width="244.43136"><g id="textblocktransform"><svg viewBox="0 0 244.43136 150.30557419354838" height="150.30557419354838" width="244.43136" id="textblock"><g><svg viewBox="0 0 244.43136 150.30557419354838" height="150.30557419354838" width="244.43136"><g transform="matrix(1,0,0,1,0,0)"><svg width="244.43136" viewBox="-0.08 -30.92 59.519999999999996 36.6" height="150.30557419354838" data-palette-color="#ba3b0a"><path d="M25.96-27.28L25.96-27.28Q25.96-29.72 24-29.72L24-29.72Q21.92-29.72 19.62-26.86 17.32-24 15.56-19.94 13.8-15.88 12.34-11.66 10.88-7.44 10.08-4.54 9.28-1.64 9.28-1.28L9.28-1.28Q9.28-0.76 8.72-0.76L8.72-0.76Q7.52-0.76 7.52-3.96L7.52-3.96Q7.52-11.68 9.26-18.96 11-26.24 13.12-28.68L13.12-28.68Q7.4-27.88 3.84-24.64L3.84-24.64Q1.8-22.84 1.8-20.72L1.8-20.72Q1.8-19.68 2.6-19.68L2.6-19.68Q2.44-19.12 1.72-19.12 1-19.12 0.46-19.68-0.08-20.24-0.08-21.24L-0.08-21.24Q-0.08-23.6 2.78-25.62 5.64-27.64 8.96-28.62 12.28-29.6 14.6-29.6L14.6-29.6Q15.24-29.6 15.24-28.96L15.24-28.96Q12.44-22.48 10.48-10.88L10.48-10.88 10.76-10.88Q12.52-16.68 14.4-20.54 16.28-24.4 17.68-26.38 19.08-28.36 20.78-29.64 22.48-30.92 24.2-30.92L24.2-30.92Q27.72-30.92 28.4-27.88L28.4-27.88Q28.56-27.2 28.56-26.44L28.56-26.44Q28.56-24 26.88-21.12L26.88-21.12Q24.48-17 20.44-15.36L20.44-15.36 18.92-14.88Q20.08-14.76 21.38-11.74 22.68-8.72 23.68-5.14 24.68-1.56 26.08 1.4 27.48 4.36 28.84 4.36L28.84 4.36Q29.92 4.36 30.44 3.6L30.44 3.6Q30.72 3.6 30.72 3.8 30.72 4 30.48 4.36L30.48 4.36Q29.6 5.56 28.32 5.68L28.32 5.68Q26.24 5.68 24.3 2.84 22.36 0 21.16-3.46 19.96-6.92 18.62-10.36 17.28-13.8 16.36-14.6L16.36-14.6Q15.92-14.6 15.66-14.86 15.4-15.12 15.36-15.68L15.36-15.68Q19.6-15.68 22.96-19.92L22.96-19.92Q25.96-23.72 25.96-27.28ZM39.72-19.4L39.72-19.4Q42.76-19.4 42.76-15.84L42.76-15.84Q42.76-13.8 41.4-11.56L41.4-11.56Q39.08-7.84 35.24-7.84L35.24-7.84Q34.64-7.84 34.24-8.04 33.84-8.24 33.64-8.64L33.64-8.64Q36.48-8.64 38.84-11.92L38.84-11.92Q40.76-14.56 40.76-16.76L40.76-16.76Q40.76-18.4 39.44-18.4L39.44-18.4Q36.8-18.4 34.52-14.28L34.52-14.28Q32.08-9.8 32.08-5.08L32.08-5.08Q32.08-1.08 34.36-0.28L34.36-0.28Q34.8-0.12 35.48-0.12 36.16-0.12 36.92-0.46 37.68-0.8 38.2-1.28L38.2-1.28Q39.24-2.24 39.92-3.4L39.92-3.4Q40.08-3.72 40.52-3.72L40.52-3.72Q41.24-3.72 41.2-3.48L41.2-3.48Q41.08-3.04 40.3-2 39.52-0.96 38.86-0.34 38.2 0.28 37.14 0.78 36.08 1.28 35 1.28L35 1.28Q30.76 1.28 29.6-2.72L29.6-2.72Q29.24-4.08 29.24-5.52L29.24-5.52Q29.24-8.2 30.48-11.36L30.48-11.36Q32.44-16.16 35.88-18.28L35.88-18.28Q37.76-19.4 39.72-19.4ZM56.59 1.4L56.59 1.4Q54.88 1.4 53.4-0.94 51.91-3.28 50.36-7.36L50.36-7.36Q48.27-4.08 47-2.42 45.72-0.76 44.91-0.76L44.91-0.76Q44.48-0.76 44.26-1.02 44.04-1.28 44.04-1.56L44.04-1.56 44.04-1.84Q44.31-1.84 44.68-2.22 45.04-2.6 45.3-2.88 45.55-3.16 45.91-3.66 46.27-4.16 46.55-4.56 46.84-4.96 47.27-5.62 47.72-6.28 48.02-6.74 48.31-7.2 48.84-8L48.84-8Q48.84-8 49.67-9.24L49.67-9.24Q49.48-9.8 49.16-10.68 48.84-11.56 48.63-12.12 48.44-12.68 48.17-13.42 47.91-14.16 47.72-14.64 47.52-15.12 47.27-15.68 47.04-16.24 46.86-16.58 46.68-16.92 46.44-17.2L46.44-17.2Q46.04-17.8 45.68-17.8L45.68-17.8Q45.72-17.96 45.77-18.22 45.84-18.48 46.3-18.92 46.76-19.36 47.44-19.36L47.44-19.36Q48.44-19.36 49.41-17.44 50.4-15.52 51.55-12.04L51.55-12.04Q56.23-18.6 58.27-18.6L58.27-18.6Q58.76-18.6 59.05-18.32 59.36-18.04 59.44-17.48L59.44-17.48Q58-17.48 56.22-15.54 54.44-13.6 52.16-10.16L52.16-10.16Q54.48-2.8 55.38-1.38 56.27 0.04 56.81 0.04 57.36 0.04 57.8-0.34 58.23-0.72 58.4-0.72L58.4-0.72Q58.95-0.72 58.36 0.16L58.36 0.16Q58.2 0.44 57.66 0.92 57.12 1.4 56.59 1.4Z" opacity="1" transform="matrix(1,0,0,1,0,0)" fill="#ba3b0a" class="wordmark-text-0" data-fill-palette-color="primary" id="text-0"></path></svg></g></svg></g></svg></g></svg></g></svg></g></svg></g></svg></g><g><path d="M0 123.6c0-68.262 55.338-123.6 123.6-123.6 31.241 0 59.774 11.59 81.535 30.705l-10.686 0c-19.653-15.011-44.209-23.928-70.849-23.928-64.519 0-116.823 52.303-116.823 116.823 0 64.519 52.303 116.823 116.823 116.823 26.639 0 51.196-8.917 70.849-23.928h10.686c-21.761 19.115-50.294 30.705-81.535 30.705-68.262 0-123.6-55.338-123.6-123.6z" fill="#caada2" stroke="transparent" data-fill-palette-color="tertiary"></path></g></svg></g><defs></defs></svg><rect width="395.52" height="247.2" fill="none" stroke="none" visibility="hidden"></rect></g></svg></g></svg>